<svg width="1200" height="360" viewBox="0 0 1200 360" fill="none" xmlns="http://www.w3.org/2000/svg" role="img" aria-labelledby="title desc">
  <title id="title">X/Twitter VTuber Music Writer</title>
  <desc id="desc">A banner for a Traditional Chinese VTuber music writing skill.</desc>
  <defs>
    <linearGradient id="bg" x1="0" y1="0" x2="1200" y2="360" gradientUnits="userSpaceOnUse">
      <stop offset="0" stop-color="#101820"/>
      <stop offset="0.48" stop-color="#1C4A56"/>
      <stop offset="1" stop-color="#A23E48"/>
    </linearGradient>
    <linearGradient id="wave" x1="120" y1="242" x2="1080" y2="242" gradientUnits="userSpaceOnUse">
      <stop offset="0" stop-color="#F7D154"/>
      <stop offset="0.5" stop-color="#61D6C2"/>
      <stop offset="1" stop-color="#F28C52"/>
    </linearGradient>
    <filter id="softShadow" x="-20%" y="-20%" width="140%" height="140%">
      <feDropShadow dx="0" dy="18" stdDeviation="18" flood-color="#071014" flood-opacity="0.34"/>
    </filter>
  </defs>
  <rect width="1200" height="360" rx="0" fill="url(#bg)"/>
  <path d="M0 255C140 217 244 225 356 246C486 270 602 308 753 254C888 206 1016 176 1200 215V360H0V255Z" fill="#0B1117" opacity="0.44"/>
  <path d="M0 70C118 99 240 100 366 72C504 42 608 35 742 78C882 122 1026 126 1200 76V0H0V70Z" fill="#FFFFFF" opacity="0.08"/>
  <g filter="url(#softShadow)">
    <rect x="82" y="72" width="1036" height="216" rx="24" fill="#FFFFFF" fill-opacity="0.08" stroke="#FFFFFF" stroke-opacity="0.18"/>
  </g>
  <g opacity="0.94">
    <path d="M162 235V198M184 235V168M206 235V214M228 235V150M250 235V188M272 235V119M294 235V175M316 235V205M338 235V142M360 235V191M382 235V161M404 235V208" stroke="url(#wave)" stroke-width="12" stroke-linecap="round"/>
    <circle cx="957" cy="147" r="52" fill="#F7D154"/>
    <path d="M952 114V172C952 196 934 213 909 213C884 213 866 196 866 174C866 152 884 136 909 136C922 136 934 140 943 147V114H952Z" fill="#101820"/>
    <path d="M978 114H990V162C990 186 1008 204 1033 204C1047 204 1059 199 1068 190V204H1080V114H1068V162C1068 180 1054 193 1035 193C1016 193 990 180 990 162V114H978Z" fill="#101820" opacity="0.94"/>
  </g>
  <text x="460" y="150" fill="#FFFFFF" font-family="Inter, 'Noto Sans TC', Arial, sans-serif" font-size="50" font-weight="800" letter-spacing="0">VTuber Music Writer</text>
  <text x="462" y="202" fill="#D9FFF7" font-family="Inter, 'Noto Sans TC', Arial, sans-serif" font-size="24" font-weight="600" letter-spacing="0">繁體中文 X/Twitter 音樂爆文寫作助手</text>
  <text x="462" y="242" fill="#FFFFFF" fill-opacity="0.76" font-family="Inter, 'Noto Sans TC', Arial, sans-serif" font-size="18" font-weight="500" letter-spacing="0">Hot topics · Music production · VTuber staff voice · Threads</text>
</svg>
